<?xml version="1.0" standalone="no"?>
<!DOCTYPE svg PUBLIC "-//W3C//DTD SVG 20010904//EN"
 "http://www.w3.org/TR/2001/REC-SVG-20010904/DTD/svg10.dtd">
<svg version="1.0" xmlns="http://www.w3.org/2000/svg"
 width="512.000000pt" height="512.000000pt" viewBox="0 0 512.000000 512.000000"
 preserveAspectRatio="xMidYMid meet">
<metadata>
Created by potrace 1.14, written by Peter Selinger 2001-2017
</metadata>
<g transform="translate(0.000000,512.000000) scale(0.100000,-0.100000)"
fill="#000000" stroke="none">
<path d="M3579 5086 c-2 -2 -17 -6 -34 -9 -16 -3 -82 -17 -145 -31 -63 -13
-126 -27 -140 -30 -14 -3 -56 -13 -95 -22 -38 -8 -81 -18 -93 -20 -188 -37
-288 -66 -313 -90 -64 -62 -60 -118 17 -233 32 -47 61 -88 64 -91 19 -16 53
-86 57 -117 10 -74 -17 -112 -160 -228 -73 -58 -139 -111 -147 -118 -8 -7 -35
-28 -60 -47 -68 -53 -119 -103 -121 -120 -6 -57 24 -100 71 -100 14 0 109 18
210 40 102 23 228 50 280 61 52 10 109 24 125 29 17 5 44 11 60 13 17 3 58 12
93 22 67 19 104 52 117 107 10 41 -7 80 -95 214 -90 135 -101 173 -71 240 21
47 27 52 286 258 171 136 184 150 185 189 0 42 -68 105 -91 83z"/>
<path d="M1734 4294 c-17 -8 -323 -308 -680 -667 -761 -764 -765 -768 -919
-1112 -49 -109 -105 -325 -122 -470 -9 -72 -9 -374 0 -430 3 -22 9 -60 12 -85
4 -25 14 -72 22 -105 8 -33 17 -68 18 -78 16 -81 122 -324 192 -440 291 -486
797 -806 1368 -864 126 -13 344 -7 445 11 132 25 184 37 244 55 257 80 497
215 685 386 24 22 314 310 644 639 450 450 605 611 619 643 21 47 18 111 -7
149 -30 47 -561 567 -592 580 -44 19 -101 17 -140 -4 -18 -10 -284 -268 -590
-573 -307 -306 -580 -571 -606 -589 -137 -92 -275 -131 -447 -126 -98 2 -128
7 -203 33 -192 67 -336 193 -427 372 -88 176 -97 401 -23 591 51 129 92 176
663 751 304 305 560 565 570 579 24 34 31 86 18 138 -9 38 -44 77 -291 324
-162 161 -295 287 -314 294 -42 18 -100 17 -139 -2z"/>
<path d="M4960 3624 c-30 -8 -198 -45 -373 -84 -174 -38 -332 -76 -350 -84
-45 -19 -71 -61 -72 -118 0 -42 8 -58 89 -176 69 -102 89 -139 90 -169 5 -77
-18 -113 -120 -195 -22 -18 -58 -47 -80 -64 -305 -244 -303 -243 -285 -296 20
-55 64 -70 141 -48 19 6 49 13 65 16 17 2 37 7 45 9 8 2 30 7 49 10 19 3 37 8
41 10 4 2 20 6 36 9 16 3 81 17 144 31 63 15 126 29 140 31 14 3 54 12 90 20
36 9 74 17 85 20 67 13 109 56 118 119 6 41 -10 77 -91 197 -86 128 -81 119
-88 162 -10 68 16 114 101 183 394 316 400 322 376 381 -20 48 -62 58 -151 36z"/>
</g>
</svg>
